<svg width="80" height="77" viewBox="0 0 80 77" fill="none" xmlns="http://www.w3.org/2000/svg">
<g clip-path="url(#clip0)">
<path fill-rule="evenodd" clip-rule="evenodd" d="M0 35.3733C0 29.6333 4.70588 24.9667 10.4941 24.9667H41.9765C47.7647 24.9667 52.4706 29.6333 52.4706 35.3733V66.5933C52.4706 72.3333 47.7647 77 41.9765 77H10.4941C4.70588 77 0 72.3333 0 66.5933V35.3733Z" fill="#27AE60"/>
<path d="M17.8824 57.7266L22.8941 50.4933L18.6824 44.0766C18.2824 43.4466 17.9765 42.91 17.7883 42.4666C17.6 42 17.5059 41.58 17.5059 41.1833C17.5059 40.74 17.6941 40.3666 18.0706 40.04C18.4572 39.6954 18.9628 39.5116 19.4824 39.5266C19.7479 39.5142 20.0131 39.5577 20.2605 39.6542C20.5079 39.7507 20.7319 39.8981 20.9177 40.0866C21.2706 40.46 21.7647 41.1366 22.3765 42.1166L25.7412 47.4833L29.3177 42.1166L30.0471 40.95L30.6588 40.1566C30.8434 39.9493 31.0722 39.7852 31.3285 39.6762C31.5849 39.5673 31.8625 39.5162 32.1412 39.5266C32.3956 39.5146 32.6498 39.5539 32.8884 39.6422C33.127 39.7304 33.3451 39.8657 33.5294 40.04C33.8824 40.3666 34.0706 40.7633 34.0706 41.23C34.0706 41.93 33.6941 42.8166 32.8941 43.9833L28.4941 50.5166L33.2471 57.75C33.6706 58.3566 33.953 58.9166 34.1883 59.3133C34.353 59.7333 34.4471 60.13 34.4471 60.48C34.454 60.823 34.3654 61.1613 34.191 61.4577C34.0167 61.7541 33.7634 61.9971 33.4588 62.16C33.1312 62.3246 32.7671 62.4049 32.4 62.3933C32.0244 62.4169 31.6495 62.3361 31.3177 62.16C31.0342 61.9897 30.793 61.7585 30.6118 61.4833C30.4235 61.25 30.0941 60.7133 29.5765 59.9667L25.6471 53.83L21.4824 60.13L20.7765 61.2033C20.6588 61.4133 20.4941 61.6 20.3059 61.7866C20.0959 61.9999 19.8425 62.1664 19.5625 62.275C19.2826 62.3836 18.9826 62.4319 18.6824 62.4166C18.1809 62.4332 17.6922 62.2578 17.3177 61.9267C16.9647 61.5767 16.7765 61.11 16.7765 60.4566C16.7765 59.71 17.153 58.8233 17.9059 57.7266H17.8824Z" fill="white"/>
<path fill-rule="evenodd" clip-rule="evenodd" d="M36.5411 3.96667H68.0235C69.748 3.96666 71.4022 4.64441 72.6238 5.85148C73.8455 7.05855 74.5349 8.69653 74.5411 10.4067V41.6267C74.5411 43.3409 73.8544 44.9848 72.6321 46.1969C71.4098 47.409 69.7521 48.09 68.0235 48.09H55.1294V52.0567H68.0235C73.8352 52.0567 78.5176 47.39 78.5176 41.6267V10.4067C78.5176 4.66667 73.8117 0 68.0235 0H36.5411C30.7529 0 26.047 4.66667 26.047 10.4067V22.68H30.047V10.4067C30.047 8.69652 30.7304 7.05607 31.9476 5.84463C33.1649 4.63319 34.8166 3.94951 36.5411 3.94333V3.96667Z" fill="#27AE60"/>
<path fill-rule="evenodd" clip-rule="evenodd" d="M39.6 15.96C39.6 14.8634 40.4941 13.9767 41.6 13.9767H63.1294C63.6598 13.9767 64.1685 14.1856 64.5436 14.5576C64.9187 14.9295 65.1294 15.434 65.1294 15.96C65.1294 16.486 64.9187 16.9905 64.5436 17.3624C64.1685 17.7344 63.6598 17.9434 63.1294 17.9434H41.6C41.3373 17.9434 41.0773 17.8921 40.8346 17.7924C40.592 17.6927 40.3715 17.5466 40.1858 17.3624C40 17.1783 39.8527 16.9596 39.7522 16.719C39.6517 16.4784 39.6 16.2205 39.6 15.96Z" fill="#27AE60"/>
<path fill-rule="evenodd" clip-rule="evenodd" d="M68.0235 0C73.8352 0 78.5176 4.66667 78.5176 10.4067V41.6267C78.5176 47.3667 73.8117 52.0333 68.0235 52.0333H55.1294V48.0667H68.0235C69.748 48.0667 71.4022 47.3889 72.6238 46.1819C73.8455 44.9748 74.5349 43.3368 74.5411 41.6267V10.4067C74.5411 8.69248 73.8544 7.04851 72.6321 5.8364C71.4098 4.62429 69.7521 3.94333 68.0235 3.94333H36.5411C34.8166 3.94951 33.1649 4.63319 31.9476 5.84463C30.7304 7.05607 30.047 8.69652 30.047 10.4067V22.68H26.047V10.4067C26.047 4.66667 30.7529 0 36.5411 0H68.0235Z" fill="#27AE60"/>
<path fill-rule="evenodd" clip-rule="evenodd" d="M55.553 25.7133C55.553 24.6166 56.2353 23.73 57.0589 23.73H63.6471C64.4706 23.73 65.1295 24.6166 65.1295 25.7133C65.1295 26.7866 64.4706 27.6733 63.6236 27.6733H57.0353C56.2353 27.6733 55.553 26.7866 55.553 25.7133ZM55.553 35.4666C55.553 34.37 56.4471 33.4833 57.553 33.4833H63.1295C63.6599 33.4833 64.1686 33.6923 64.5437 34.0642C64.9187 34.4362 65.1295 34.9406 65.1295 35.4666C65.1295 35.9927 64.9187 36.4971 64.5437 36.8691C64.1686 37.241 63.6599 37.45 63.1295 37.45H57.553C57.0225 37.45 56.5138 37.241 56.1388 36.8691C55.7637 36.4971 55.553 35.9927 55.553 35.4666Z" fill="#27AE60"/>
</g>
<defs>
<clipPath id="clip0">
<rect width="80" height="77" fill="white"/>
</clipPath>
</defs>
</svg>
