<svg width="74" height="72" viewBox="0 0 74 72" fill="none" xmlns="http://www.w3.org/2000/svg">
<g clip-path="url(#clip0)">
<path d="M0 33.2509C0 27.7963 4.41824 23.3672 9.85941 23.3672H38.6541C44.0953 23.3672 48.5135 27.7963 48.5135 33.2509V62.1163C48.5135 67.5709 44.0953 72 38.6541 72H9.85941C7.24453 72 4.73675 70.9587 2.88775 69.1051C1.03876 67.2516 0 64.7376 0 62.1163L0 33.2509Z" fill="#9B59B6"/>
<path d="M15.5182 46.2982L9.85938 53.7164C9.7733 53.8313 9.72132 53.9683 9.70942 54.1115C9.69752 54.2547 9.72618 54.3984 9.79211 54.5261C9.85804 54.6537 9.95856 54.7601 10.0821 54.833C10.2057 54.9059 10.3472 54.9424 10.4906 54.9382H38.0882C38.7411 54.9382 39.0894 54.2182 38.6976 53.6946L28.9035 41.1927C28.8322 41.102 28.7413 41.0286 28.6376 40.9782C28.534 40.9277 28.4202 40.9015 28.305 40.9015C28.1897 40.9015 28.076 40.9277 27.9723 40.9782C27.8686 41.0286 27.7777 41.102 27.7064 41.1927L20.8723 49.5709C20.8009 49.6578 20.7111 49.7277 20.6095 49.7757C20.5079 49.8238 20.397 49.8487 20.2847 49.8487C20.1724 49.8487 20.0614 49.8238 19.9598 49.7757C19.8582 49.7277 19.7685 49.6578 19.697 49.5709L16.7153 46.2546C16.6407 46.1663 16.5472 46.0962 16.4417 46.0494C16.3362 46.0027 16.2214 45.9806 16.1062 45.9848C15.9909 45.989 15.8781 46.0194 15.7762 46.0737C15.6744 46.128 15.5861 46.2048 15.5182 46.2982Z" fill="white"/>
<path fill-rule="evenodd" clip-rule="evenodd" d="M33.8442 3.70909H63.0089C64.6079 3.70909 66.1413 4.34583 67.272 5.47923C68.4026 6.61263 69.0378 8.14985 69.0378 9.75273V38.9891C69.032 40.5882 68.3943 42.1198 67.2643 43.2485C66.1343 44.3772 64.6041 45.0109 63.0089 45.0109H51.0601V48.72H63.0307C68.3848 48.72 72.7378 44.3564 72.7378 38.9673V9.73091C72.7378 4.36364 68.3848 0 63.0089 0H33.8442C28.5119 0 24.1589 4.36364 24.1589 9.75273V21.2291H27.8589V9.75273C27.8589 8.15363 28.4911 6.6197 29.617 5.48693C30.743 4.35415 32.2708 3.71486 33.866 3.70909H33.8442Z" fill="#9B59B6"/>
<path fill-rule="evenodd" clip-rule="evenodd" d="M36.6952 14.9236C36.6952 13.92 37.5223 13.0909 38.5234 13.0909H58.4817C58.9723 13.0909 59.4429 13.2863 59.7898 13.6341C60.1368 13.9819 60.3317 14.4536 60.3317 14.9455C60.3317 15.4373 60.1368 15.909 59.7898 16.2568C59.4429 16.6046 58.9723 16.8 58.4817 16.8H38.5234C38.2805 16.7972 38.0405 16.7464 37.8171 16.6505C37.5937 16.5547 37.3914 16.4157 37.2216 16.2414C37.0519 16.0672 36.918 15.8611 36.8277 15.635C36.7373 15.4089 36.6923 15.1672 36.6952 14.9236Z" fill="#9B59B6"/>
<path fill-rule="evenodd" clip-rule="evenodd" d="M63.009 0C68.3849 0 72.7378 4.36364 72.7378 9.75273V38.9891C72.7378 44.3564 68.3849 48.72 63.009 48.72H51.0602V45.0109H63.0308C64.6259 45.0051 66.1538 44.3659 67.2797 43.2331C68.4057 42.1003 69.0378 40.5664 69.0378 38.9673V9.73091C69.0321 8.13182 68.3944 6.6002 67.2644 5.47151C66.1344 4.34282 64.6042 3.70908 63.009 3.70909H33.8443C32.2454 3.70909 30.7119 4.34583 29.5813 5.47923C28.4507 6.61263 27.8155 8.14985 27.8155 9.75273V21.2291H24.1155V9.75273C24.1155 4.36364 28.4684 0 33.8443 0H63.009Z" fill="#9B59B6"/>
<path fill-rule="evenodd" clip-rule="evenodd" d="M51.4517 24.0655C51.4517 23.04 52.0828 22.2109 52.8446 22.2109H58.9387C59.7005 22.2109 60.3317 23.04 60.3317 24.0655C60.3317 25.0909 59.7005 25.92 58.9387 25.92H52.8446C52.0828 25.92 51.4517 25.0909 51.4517 24.0655ZM51.4517 33.2073C51.4517 32.1818 52.2787 31.3527 53.3017 31.3527H58.4817C58.9723 31.3527 59.4429 31.5481 59.7898 31.8959C60.1367 32.2437 60.3317 32.7154 60.3317 33.2073C60.3317 33.6991 60.1367 34.1708 59.7898 34.5186C59.4429 34.8664 58.9723 35.0618 58.4817 35.0618H53.3017C53.0587 35.0618 52.8181 35.0138 52.5937 34.9206C52.3692 34.8274 52.1653 34.6908 51.9935 34.5186C51.8217 34.3464 51.6855 34.142 51.5925 33.917C51.4995 33.692 51.4517 33.4508 51.4517 33.2073Z" fill="#9B59B6"/>
</g>
<defs>
<clipPath id="clip0">
<rect width="74" height="72" fill="white"/>
</clipPath>
</defs>
</svg>
