<svg width="51" height="51" viewBox="0 0 51 51" fill="none" xmlns="http://www.w3.org/2000/svg">
<path d="M0 10.2C0 7.49479 1.07464 4.90038 2.98751 2.98751C4.90038 1.07464 7.49479 0 10.2 0L40.8 0C43.5052 0 46.0996 1.07464 48.0125 2.98751C49.9254 4.90038 51 7.49479 51 10.2V40.8C51 43.5052 49.9254 46.0996 48.0125 48.0125C46.0996 49.9254 43.5052 51 40.8 51H10.2C7.49479 51 4.90038 49.9254 2.98751 48.0125C1.07464 46.0996 0 43.5052 0 40.8L0 10.2Z" fill="#E74C3C"/>
<path fill-rule="evenodd" clip-rule="evenodd" d="M14.9262 12.869C14.6845 12.6438 14.3648 12.5212 14.0345 12.527C13.7042 12.5328 13.389 12.6666 13.1554 12.9002C12.9218 13.1338 12.788 13.449 12.7822 13.7793C12.7764 14.1096 12.899 14.4293 13.1242 14.671L20.5022 22.049H16.5752C16.237 22.049 15.9127 22.1833 15.6736 22.4224C15.4345 22.6615 15.3002 22.9858 15.3002 23.324C15.3002 23.6621 15.4345 23.9864 15.6736 24.2256C15.9127 24.4647 16.237 24.599 16.5752 24.599H23.5452C23.8154 24.6072 24.0813 24.5293 24.3044 24.3765C24.5275 24.2237 24.6962 24.004 24.7862 23.749C24.8712 23.579 24.9222 23.392 24.9222 23.188V16.252C24.9222 15.9138 24.7879 15.5895 24.5487 15.3504C24.3096 15.1113 23.9853 14.977 23.6472 14.977C23.309 14.977 22.9847 15.1113 22.7456 15.3504C22.5065 15.5895 22.3722 15.9138 22.3722 16.252V20.315L14.9262 12.869ZM36.2612 38.199C36.3806 38.3173 36.5222 38.411 36.6778 38.4746C36.8334 38.5382 37.0001 38.5705 37.1682 38.5697C37.3363 38.5689 37.5026 38.535 37.6577 38.47C37.8127 38.4049 37.9534 38.3099 38.0717 38.1905C38.19 38.0711 38.2836 37.9295 38.3472 37.7739C38.4109 37.6182 38.4432 37.4516 38.4424 37.2835C38.4416 37.1154 38.4077 36.949 38.3426 36.794C38.2776 36.639 38.1826 36.4983 38.0632 36.38L30.6852 29.002H34.5952C34.9333 29.002 35.2576 28.8677 35.4967 28.6286C35.7359 28.3894 35.8702 28.0651 35.8702 27.727C35.8702 27.3888 35.7359 27.0645 35.4967 26.8254C35.2576 26.5863 34.9333 26.452 34.5952 26.452H27.6422C27.3719 26.4438 27.1061 26.5217 26.883 26.6745C26.6599 26.8273 26.4912 27.047 26.4012 27.302C26.311 27.4813 26.2644 27.6793 26.2652 27.88V34.799C26.2652 35.1371 26.3995 35.4614 26.6386 35.7006C26.8777 35.9397 27.202 36.074 27.5402 36.074C27.8783 36.074 28.2026 35.9397 28.4417 35.7006C28.6808 35.4614 28.8152 35.1371 28.8152 34.799V30.77L36.2612 38.199Z" fill="white"/>
</svg>
