<svg width="81" height="79" viewBox="0 0 81 79" fill="none" xmlns="http://www.w3.org/2000/svg">
<g clip-path="url(#clip0)">
<path d="M0 36.4836C0 30.4988 4.83618 25.6391 10.7921 25.6391H42.3106C48.2665 25.6391 53.1027 30.4988 53.1027 36.4836V68.1555C53.1027 74.1403 48.2665 79 42.3106 79H10.7921C7.92983 79 5.18482 77.8575 3.16092 75.8237C1.13702 73.79 0 71.0316 0 68.1555L0 36.4836Z" fill="#D35400"/>
<path d="M22.6323 43.9048V52.2836C22.6323 52.4272 22.7038 52.523 22.8944 52.5948C23.9902 52.7385 24.9432 52.8103 25.777 52.8103C27.6352 52.8103 29.0647 52.4033 30.0652 51.6133C31.042 50.7754 31.5423 49.6024 31.5423 48.0703C31.5423 46.5382 31.0658 45.3891 30.0891 44.623C29.1123 43.8091 27.6829 43.426 25.8008 43.426C24.7764 43.426 23.7997 43.4739 22.8944 43.5936C22.7038 43.6415 22.6323 43.7372 22.6323 43.9048ZM22.1082 63.6069C21.9501 63.769 21.7609 63.8972 21.552 63.9836C21.3432 64.07 21.119 64.1129 20.8932 64.1097C20.6651 64.1193 20.4374 64.0818 20.2243 63.9995C20.0112 63.9171 19.8172 63.7916 19.6544 63.6309C19.4871 63.4665 19.356 63.2686 19.2699 63.05C19.1837 62.8314 19.1442 62.597 19.1541 62.3621V42.8994C19.1541 42.3966 19.3208 41.9418 19.6305 41.5348C19.7865 41.339 19.9815 41.1782 20.2031 41.0627C20.4247 40.9473 20.6679 40.8798 20.917 40.8645C22.7038 40.6969 24.4429 40.6251 26.1105 40.6251C29.017 40.6251 31.2088 41.2236 32.7097 42.4924C34.2105 43.6894 34.9491 45.4609 34.9491 47.7591C34.9491 52.9539 31.995 55.5394 26.1105 55.5394C24.8479 55.5394 23.7758 55.4915 22.8705 55.4197C22.7038 55.4197 22.6323 55.4915 22.6323 55.6591V62.3621C22.6358 62.5948 22.5909 62.8256 22.5007 63.04C22.4105 63.2543 22.2768 63.4474 22.1082 63.6069Z" fill="white"/>
<path fill-rule="evenodd" clip-rule="evenodd" d="M37.0458 4.0697H68.9693C70.7195 4.0697 72.398 4.76834 73.6356 6.01193C74.8732 7.25553 75.5684 8.9422 75.5684 10.7009V42.7797C75.5621 44.5343 74.8641 46.2148 73.6272 47.4532C72.3903 48.6916 70.7154 49.387 68.9693 49.387H55.8902V53.4567H68.9932C74.8537 53.4567 79.6184 48.6688 79.6184 42.7558V10.677C79.6184 4.78788 74.8537 0 68.9693 0H37.0458C31.209 0 26.4443 4.78788 26.4443 10.7009V23.293H30.4943V10.7009C30.4943 8.94634 31.1863 7.26329 32.4187 6.02038C33.6512 4.77747 35.3236 4.07603 37.0696 4.0697H37.0458Z" fill="#D35400"/>
<path fill-rule="evenodd" clip-rule="evenodd" d="M40.1664 16.3746C40.1664 15.2733 41.0717 14.3636 42.1676 14.3636H64.0138C64.5508 14.3636 65.0659 14.578 65.4456 14.9596C65.8254 15.3412 66.0387 15.8588 66.0387 16.3985C66.0387 16.9382 65.8254 17.4557 65.4456 17.8374C65.0659 18.219 64.5508 18.4333 64.0138 18.4333H42.1676C41.9016 18.4302 41.6389 18.3745 41.3944 18.2693C41.1499 18.1642 40.9285 18.0116 40.7426 17.8205C40.5568 17.6293 40.4103 17.4032 40.3114 17.1551C40.2125 16.907 40.1633 16.6418 40.1664 16.3746Z" fill="#D35400"/>
<path fill-rule="evenodd" clip-rule="evenodd" d="M68.9691 0C74.8536 0 79.6183 4.78788 79.6183 10.7009V42.7797C79.6183 48.6688 74.8536 53.4567 68.9691 53.4567H55.89V49.387H68.993C70.739 49.3806 72.4114 48.6792 73.6438 47.4363C74.8763 46.1934 75.5683 44.5103 75.5683 42.7558V10.677C75.562 8.92241 74.8639 7.24188 73.627 6.00346C72.3901 4.76504 70.7152 4.06969 68.9691 4.0697H37.0456C35.2954 4.0697 33.6169 4.76834 32.3793 6.01193C31.1417 7.25553 30.4465 8.9422 30.4465 10.7009V23.293H26.3965V10.7009C26.3965 4.78788 31.1612 0 37.0456 0H68.9691Z" fill="#D35400"/>
<path fill-rule="evenodd" clip-rule="evenodd" d="M56.3186 26.4051C56.3186 25.28 57.0095 24.3703 57.8433 24.3703H64.5139C65.3477 24.3703 66.0386 25.28 66.0386 26.4051C66.0386 27.5303 65.3477 28.44 64.5139 28.44H57.8433C57.0095 28.44 56.3186 27.5303 56.3186 26.4051ZM56.3186 36.4358C56.3186 35.3106 57.2239 34.4009 58.3436 34.4009H64.0136C64.5507 34.4009 65.0657 34.6153 65.4455 34.9969C65.8253 35.3785 66.0386 35.8961 66.0386 36.4358C66.0386 36.9754 65.8253 37.493 65.4455 37.8746C65.0657 38.2562 64.5507 38.4706 64.0136 38.4706H58.3436C58.0777 38.4706 57.8144 38.418 57.5687 38.3157C57.323 38.2134 57.0998 38.0636 56.9117 37.8746C56.7237 37.6857 56.5745 37.4613 56.4727 37.2145C56.371 36.9676 56.3186 36.703 56.3186 36.4358Z" fill="#D35400"/>
</g>
<defs>
<clipPath id="clip0">
<rect width="81" height="79" fill="white"/>
</clipPath>
</defs>
</svg>
