<svg width="75" height="75" viewBox="0 0 75 75" fill="none" xmlns="http://www.w3.org/2000/svg">
<path fill-rule="evenodd" clip-rule="evenodd" d="M39.3529 28.1818H9.83824C8.2215 28.1818 6.67066 28.842 5.52539 30.0177C4.38012 31.1934 3.73378 32.7888 3.72794 34.4545V64.8636C3.72794 66.5333 4.3717 68.1346 5.51761 69.3152C6.66351 70.4958 8.21769 71.1591 9.83824 71.1591H39.3529C40.9735 71.1591 42.5277 70.4958 43.6736 69.3152C44.8195 68.1346 45.4632 66.5333 45.4632 64.8636V34.4545C45.4632 32.7849 44.8195 31.1836 43.6736 30.003C42.5277 28.8224 40.9735 28.1591 39.3529 28.1591V28.1818ZM9.83824 24.3182C4.41177 24.3182 0 28.8636 0 34.4545V64.8636C0 70.4545 4.41177 75 9.83824 75H39.3529C44.7794 75 49.1912 70.4545 49.1912 64.8636V34.4545C49.1912 28.8636 44.7794 24.3182 39.3529 24.3182H9.83824Z" fill="#2980B9"/>
<path fill-rule="evenodd" clip-rule="evenodd" d="M34.2573 3.86364H63.772C65.3887 3.86363 66.9396 4.52377 68.0849 5.69949C69.2301 6.87521 69.8765 8.47065 69.8823 10.1364V40.5455C69.8823 42.2151 69.2385 43.8164 68.0926 44.997C66.9467 46.1776 65.3926 46.8409 63.772 46.8409H51.6838V50.6818H63.772C69.2205 50.6818 73.6102 46.1364 73.6102 40.5455V10.1364C73.6102 4.54545 69.1985 0 63.772 0H34.2573C28.8308 0 24.4191 4.54545 24.4191 10.1364V22.0909H28.1691V10.1364C28.1691 8.47064 28.8098 6.8728 29.9509 5.69282C31.0921 4.51285 32.6406 3.84692 34.2573 3.84091V3.86364Z" fill="#2980B9"/>
<path fill-rule="evenodd" clip-rule="evenodd" d="M24.5294 10.4546C24.5294 4.77273 29.0074 0.181824 34.5 0.181824H63.6618C69.1765 0.181824 73.6324 4.77273 73.6324 10.4546V40.5C73.6324 46.1818 69.1765 50.7727 63.6618 50.7727H51.8824V33.1136L52.2574 35.2727C52.3456 35.7727 52.5882 36.1818 52.9191 36.5C53.2861 36.8279 53.757 37.0058 54.2427 37H54.8603C55.3677 37 55.7868 36.8409 56.1838 36.5455C56.5588 36.2046 56.8015 35.7955 56.9118 35.3182L60.8162 16.3182C60.8677 16.1283 60.8704 15.9279 60.824 15.7366C60.7776 15.5454 60.6837 15.3698 60.5515 15.2273C60.4365 15.0616 60.2839 14.9273 60.1071 14.8362C59.9302 14.7451 59.7344 14.6999 59.5368 14.7046C59.0956 14.7046 58.6765 14.8636 58.3015 15.1591C57.9502 15.4486 57.7146 15.8612 57.6397 16.3182L54.7059 33.2955V33.3182H54.6618L51.7279 16.4091C51.6548 15.9271 51.4112 15.49 51.0441 15.1818C50.675 14.8603 50.2038 14.6904 49.7206 14.7046H48.9706C48.4874 14.6904 48.0162 14.8603 47.6471 15.1818C47.3013 15.5046 47.0686 15.9361 46.9853 16.4091L45.8824 22.7273C44.6563 22.1807 43.3359 21.8947 42 21.8864L41.0515 16.3864C40.9892 15.9122 40.7522 15.4809 40.3897 15.1818C40.0284 14.8618 39.5645 14.6917 39.0882 14.7046C38.6471 14.7046 38.3162 14.8864 38.0515 15.2273C37.931 15.3862 37.8451 15.5698 37.7994 15.7659C37.7537 15.9619 37.7494 16.1657 37.7868 16.3636L38.9118 21.8636H24.5294V10.4546ZM48.2427 24.2273C49.3897 25.1818 50.3382 26.4318 50.9559 27.8409L49.3235 18.3864H49.2574L48.2427 24.2273ZM12.5294 39.5909C12.5294 38.5227 13.3677 37.6591 14.4044 37.6591H34.5882C35.0855 37.6591 35.5624 37.8626 35.9141 38.2249C36.2657 38.5872 36.4632 39.0786 36.4632 39.5909C36.4632 40.1033 36.2657 40.5946 35.9141 40.9569C35.5624 41.3192 35.0855 41.5227 34.5882 41.5227H14.4044C13.9071 41.5227 13.4302 41.3192 13.0786 40.9569C12.727 40.5946 12.5294 40.1033 12.5294 39.5909ZM12.5294 49.7955C12.5294 48.7273 13.3677 47.8636 14.4044 47.8636H34.5882C35.0855 47.8636 35.5624 48.0672 35.9141 48.4295C36.2657 48.7918 36.4632 49.2831 36.4632 49.7955C36.4632 50.3078 36.2657 50.7992 35.9141 51.1615C35.5624 51.5238 35.0855 51.7273 34.5882 51.7273H14.4044C13.9071 51.7273 13.4302 51.5238 13.0786 51.1615C12.727 50.7992 12.5294 50.3078 12.5294 49.7955ZM12.5294 60C12.5294 58.9546 13.3677 58.0909 14.4044 58.0909H34.5882C35.0855 58.0909 35.5624 58.2945 35.9141 58.6567C36.2657 59.019 36.4632 59.5104 36.4632 60.0227C36.4632 60.5351 36.2657 61.0265 35.9141 61.3887C35.5624 61.751 35.0855 61.9546 34.5882 61.9546H14.4044C14.1582 61.9546 13.9144 61.9046 13.6869 61.8075C13.4594 61.7104 13.2527 61.5681 13.0786 61.3887C12.9045 61.2094 12.7664 60.9964 12.6721 60.762C12.5779 60.5276 12.5294 60.2764 12.5294 60.0227V60Z" fill="#2980B9"/>
</svg>
