<svg width="78" height="76" viewBox="0 0 78 76" fill="none" xmlns="http://www.w3.org/2000/svg">
<g clip-path="url(#clip0)">
<path fill-rule="evenodd" clip-rule="evenodd" d="M40.9271 28.5576H10.2318C8.55036 28.5576 6.93748 29.2265 5.7464 30.4179C4.55532 31.6093 3.88313 33.226 3.87706 34.9139V65.7285C3.87706 67.4204 4.54657 69.043 5.73831 70.2394C6.93005 71.4358 8.54639 72.1079 10.2318 72.1079H40.9271C42.6124 72.1079 44.2288 71.4358 45.4205 70.2394C46.6123 69.043 47.2818 67.4204 47.2818 65.7285V34.9139C47.2818 33.222 46.6123 31.5994 45.4205 30.403C44.2288 29.2067 42.6124 28.5345 40.9271 28.5345V28.5576ZM10.2318 24.6424C4.58824 24.6424 0 29.2485 0 34.9139V65.7285C0 71.3939 4.58824 76 10.2318 76H40.9271C46.5706 76 51.1588 71.3939 51.1588 65.7285V34.9139C51.1588 29.2485 46.5706 24.6424 40.9271 24.6424H10.2318Z" fill="#9B59B6"/>
<path fill-rule="evenodd" clip-rule="evenodd" d="M35.6278 3.91515H66.323C68.0045 3.91514 69.6173 4.58409 70.8084 5.77548C71.9995 6.96687 72.6717 8.58359 72.6778 10.2715V41.0861C72.6778 42.778 72.0082 44.4006 70.8165 45.597C69.6248 46.7933 68.0084 47.4655 66.323 47.4655H53.7513V51.3576H66.323C71.9895 51.3576 76.5548 46.7515 76.5548 41.0861V10.2715C76.5548 4.60606 71.9666 0 66.323 0H35.6278C29.9842 0 25.396 4.60606 25.396 10.2715V22.3855H29.296V10.2715C29.296 8.58358 29.9623 6.96443 31.1491 5.76873C32.3359 4.57302 33.9464 3.89821 35.6278 3.89212V3.91515Z" fill="#9B59B6"/>
<path fill-rule="evenodd" clip-rule="evenodd" d="M25.5105 10.5939C25.5105 4.83636 30.1676 0.184235 35.8799 0.184235H66.2082C71.9435 0.184235 76.5776 4.83636 76.5776 10.5939V41.04C76.5776 46.7976 71.9435 51.4497 66.2082 51.4497H53.9576V32.657H65.3823C66.0705 32.657 66.4376 31.897 66.0246 31.3442L55.7011 18.1479C55.626 18.0521 55.5302 17.9746 55.4209 17.9214C55.3116 17.8681 55.1917 17.8404 55.0702 17.8404C54.9488 17.8404 54.8289 17.8681 54.7196 17.9214C54.6103 17.9746 54.5145 18.0521 54.4393 18.1479L49.5988 24.0897C47.8456 22.8307 45.7438 22.1542 43.5882 22.1551H25.5105V10.5939ZM13.0305 40.1188C13.0305 39.0364 13.9023 38.1612 14.9805 38.1612H35.9717C36.4889 38.1612 36.9849 38.3674 37.3506 38.7346C37.7162 39.1017 37.9217 39.5996 37.9217 40.1188C37.9217 40.638 37.7162 41.1359 37.3506 41.503C36.9849 41.8701 36.4889 42.0764 35.9717 42.0764H14.9805C14.4633 42.0764 13.9674 41.8701 13.6017 41.503C13.236 41.1359 13.0305 40.638 13.0305 40.1188ZM13.0305 50.4594C13.0305 49.377 13.9023 48.5018 14.9805 48.5018H35.9717C36.4889 48.5018 36.9849 48.7081 37.3506 49.0752C37.7162 49.4423 37.9217 49.9402 37.9217 50.4594C37.9217 50.9786 37.7162 51.4765 37.3506 51.8436C36.9849 52.2107 36.4889 52.417 35.9717 52.417H14.9805C14.4633 52.417 13.9674 52.2107 13.6017 51.8436C13.236 51.4765 13.0305 50.9786 13.0305 50.4594ZM13.0305 60.8C13.0305 59.7406 13.9023 58.8654 14.9805 58.8654H35.9717C36.4889 58.8654 36.9849 59.0717 37.3506 59.4388C37.7162 59.8059 37.9217 60.3038 37.9217 60.823C37.9217 61.3422 37.7162 61.8401 37.3506 62.2072C36.9849 62.5744 36.4889 62.7806 35.9717 62.7806H14.9805C14.7244 62.7806 14.4709 62.73 14.2343 62.6316C13.9977 62.5332 13.7827 62.389 13.6017 62.2072C13.4206 62.0255 13.2769 61.8097 13.179 61.5722C13.081 61.3346 13.0305 61.0801 13.0305 60.823V60.8Z" fill="#9B59B6"/>
</g>
<defs>
<clipPath id="clip0">
<rect width="78" height="76" fill="white"/>
</clipPath>
</defs>
</svg>
