<svg width="60" height="72" viewBox="0 0 60 72" fill="none" xmlns="http://www.w3.org/2000/svg">
<path d="M48.964 0H23.8821C21.6658 0 19.869 1.79687 19.869 4.01311V5.01639H13.8493C11.6331 5.01639 9.83618 6.81326 9.83618 9.02951V14.0459C9.83618 16.2621 11.6331 18.059 13.8493 18.059H19.869V25.082V38.1246V42.1377C19.869 44.3549 21.6648 46.1508 23.8821 46.1508H26.8919H29.9017C29.9017 48.367 31.6986 50.1639 33.9149 50.1639H45.9542C48.1704 50.1639 49.9673 48.367 49.9673 46.1508H52.9771H55.987C58.2032 46.1508 60.0001 44.3539 60.0001 42.1377V11.0361V10.0328L49.9673 0H48.964ZM43.9476 9.02951C43.9476 6.81326 42.1508 5.01639 39.9345 5.01639C42.1518 5.01639 43.9476 6.81226 43.9476 9.02951ZM43.9476 14.0459C43.9476 16.2631 42.1518 18.059 39.9345 18.059C42.1508 18.059 43.9476 16.2621 43.9476 14.0459Z" fill="#FFDC69"/>
<path d="M43.9477 9.02953V14.0459C43.9477 16.2622 42.1508 18.059 39.9345 18.059H13.8493C11.6331 18.059 9.83618 16.2622 9.83618 14.0459V9.02953C9.83618 6.81329 11.6331 5.01642 13.8493 5.01642H39.9345C42.1508 5.01642 43.9477 6.81329 43.9477 9.02953Z" fill="#FF8C5A"/>
<path d="M49.9674 0H48.9641V7.02295C48.9641 9.23919 50.761 11.0361 52.9772 11.0361H60.0002V10.0328L49.9674 0Z" fill="#FFB855"/>
<path d="M14.8525 13.0428H12.8459V15.0493H14.8525V13.0428Z" fill="white"/>
<path d="M21.6268 8.04727H16.0295V9.76087H17.8244V15.0441H19.831V9.76087H21.6268V8.04727Z" fill="white"/>
<path d="M24.4216 8.04633H22.415V15.0432H24.4216V8.04633Z" fill="white"/>
<path d="M27.7185 12.56H29.9738V10.8454H27.7185V9.76087H30.3491V8.04727H25.7119V15.0441H27.7185V12.56Z" fill="white"/>
<path d="M35.9424 8.04727H31.3042V15.0441H33.3108V12.56H35.5661V10.8454H33.3108V9.76087H35.9424V8.04727Z" fill="white"/>
<path d="M30.9952 24.5901C38.2536 24.5901 42.2951 28.7727 42.2951 35.9393V60.212C42.2951 67.4962 38.2536 71.5847 30.9952 71.5847H11.3022C4.15902 71.5847 0 67.4962 0 60.212V35.9393C0 28.7727 4.15902 24.5901 11.3022 24.5901H30.9952ZM11.9366 56.8754C11.2317 56.8049 10.5503 57.1339 10.1743 57.7448C9.79836 58.3322 9.79836 59.1076 10.1743 59.7186C10.5503 60.306 11.2317 60.6585 11.9366 60.5645H30.3585C31.296 60.4705 32.0033 59.6692 32.0033 58.7317C32.0033 57.7683 31.296 56.9694 30.3585 56.8754H11.9366ZM30.3585 46.1583H11.9366C10.9239 46.1583 10.1038 46.983 10.1038 47.9934C10.1038 49.0038 10.9239 49.8262 11.9366 49.8262H30.3585C31.3689 49.8262 32.1913 49.0038 32.1913 47.9934C32.1913 46.983 31.3689 46.1583 30.3585 46.1583ZM18.9599 35.5164H11.9366V35.5399C10.9239 35.5399 10.1038 36.3623 10.1038 37.3727C10.1038 38.383 10.9239 39.2055 11.9366 39.2055H18.9599C19.9727 39.2055 20.7951 38.383 20.7951 37.3468C20.7951 36.3388 19.9727 35.5164 18.9599 35.5164Z" fill="#FF8C5A"/>
</svg>
