<svg width="52" height="61" viewBox="0 0 52 61" fill="none" xmlns="http://www.w3.org/2000/svg">
<path d="M29.8311 0C30.6185 0 31.2242 0.6405 31.2242 1.403V11.224C31.2242 16.8055 35.7973 21.3805 41.3395 21.411C43.6412 21.411 45.4584 21.4415 46.8515 21.4415L47.3675 21.4392C48.2985 21.4322 49.5519 21.411 50.6372 21.411C51.3943 21.411 52 22.021 52 22.7835V47.3055C52 54.8695 45.9126 61 38.4019 61H14.2947C6.4205 61 0 54.5645 0 46.6345V13.7555C0 6.1915 6.11765 0 13.6587 0H29.8311ZM33.0716 39.345H16.5964C15.3547 39.345 14.325 40.3515 14.325 41.602C14.325 42.8525 15.3547 43.8895 16.5964 43.8895H33.0716C34.3133 43.8895 35.343 42.8525 35.343 41.602C35.343 40.3515 34.3133 39.345 33.0716 39.345ZM26.8328 24.095H16.5964C15.3547 24.095 14.325 25.132 14.325 26.3825C14.325 27.633 15.3547 28.6395 16.5964 28.6395H26.8328C28.0745 28.6395 29.1043 27.633 29.1043 26.3825C29.1043 25.132 28.0745 24.095 26.8328 24.095ZM35.6374 2.7633C35.6374 1.44875 37.2213 0.79605 38.1269 1.7446C41.4007 5.1728 47.1216 11.166 50.3198 14.5149C51.2041 15.4391 50.556 16.9732 49.281 16.9763C46.7915 16.9854 43.8569 16.9763 41.746 16.955C38.3964 16.955 35.6374 14.1764 35.6374 10.8031V2.7633Z" fill="#4A7AFF"/>
</svg>
