<svg width="75" height="75" viewBox="0 0 75 75" fill="none" xmlns="http://www.w3.org/2000/svg">
<path d="M0 34.6591C0 28.9773 4.45588 24.3864 9.97059 24.3864H39.1324C44.6471 24.3864 49.1029 29 49.1029 34.6591V64.7045C49.1029 70.3863 44.625 74.9773 39.1324 74.9773H9.97059C7.32622 74.9773 4.79017 73.895 2.92032 71.9684C1.05047 70.0419 0 67.429 0 64.7045L0 34.6591Z" fill="#2980B9"/>
<path d="M17.6692 59.1136L13.7869 40.1818C13.7462 39.9804 13.7488 39.7723 13.7945 39.572C13.8403 39.3718 13.928 39.1843 14.0516 39.0227C14.1721 38.8519 14.332 38.7147 14.5168 38.6235C14.7017 38.5322 14.9057 38.4898 15.1104 38.5C15.5736 38.5 15.9927 38.6591 16.3677 39C16.7427 39.2954 16.9854 39.6818 17.0516 40.1818L19.9854 57.0909C19.9854 57.1136 19.9854 57.1363 20.0295 57.1363V57.0909L22.9854 40.2045C23.0643 39.723 23.3079 39.2865 23.672 38.9739C24.0361 38.6613 24.4968 38.4932 24.9707 38.5H25.7427C26.228 38.5 26.6692 38.6591 27.0442 39C27.4192 39.3182 27.6398 39.7273 27.706 40.2045L30.6619 57.0909L30.6839 57.1363C30.706 57.1363 30.728 57.1364 30.728 57.0909L33.6619 40.1136C33.728 39.6591 33.9486 39.2727 34.3236 38.9773C34.6766 38.6591 35.0957 38.5227 35.5589 38.5227C35.956 38.5227 36.3089 38.6818 36.5516 39.0227C36.8383 39.3409 36.9266 39.7045 36.8163 40.1136L32.9119 59.1136C32.8157 59.6034 32.5489 60.0399 32.1619 60.3409C31.7916 60.6421 31.332 60.8026 30.8604 60.7954H30.2427C29.757 60.8012 29.2862 60.6233 28.9192 60.2954C28.5776 59.9786 28.3453 59.5558 28.2574 59.0909L25.3236 42.2045L25.3016 42.1591C25.2795 42.1591 25.2574 42.1591 25.2574 42.2045L22.3236 59.0909C22.2511 59.5614 22.0161 59.9892 21.6619 60.2954C21.2949 60.6233 20.824 60.8012 20.3383 60.7954H19.7207C19.2429 60.7988 18.7774 60.6389 18.3971 60.3409C18.0101 60.0301 17.744 59.5866 17.6471 59.0909L17.6692 59.1136Z" fill="white"/>
<path fill-rule="evenodd" clip-rule="evenodd" d="M39.3529 28.1818H9.83824C8.2215 28.1818 6.67066 28.8419 5.52539 30.0177C4.38012 31.1934 3.73378 32.7888 3.72794 34.4545V64.8636C3.72794 66.5333 4.3717 68.1346 5.51761 69.3152C6.66351 70.4958 8.21769 71.1591 9.83824 71.1591H39.3529C40.9735 71.1591 42.5277 70.4958 43.6736 69.3152C44.8195 68.1346 45.4632 66.5333 45.4632 64.8636V34.4545C45.4632 32.7849 44.8195 31.1836 43.6736 30.003C42.5277 28.8224 40.9735 28.1591 39.3529 28.1591V28.1818ZM9.83824 24.3182C4.41177 24.3182 0 28.8636 0 34.4545V64.8636C0 70.4545 4.41177 75 9.83824 75H39.3529C44.7794 75 49.1912 70.4545 49.1912 64.8636V34.4545C49.1912 28.8636 44.7794 24.3182 39.3529 24.3182H9.83824Z" fill="#2980B9"/>
<path fill-rule="evenodd" clip-rule="evenodd" d="M34.2573 3.86364H63.772C65.3887 3.86363 66.9396 4.52377 68.0849 5.69949C69.2301 6.87521 69.8765 8.47065 69.8823 10.1364V40.5455C69.8823 42.2151 69.2385 43.8164 68.0926 44.997C66.9467 46.1776 65.3926 46.8409 63.772 46.8409H51.6838V50.7045H63.772C69.2205 50.7045 73.6102 46.1591 73.6102 40.5455V10.1364C73.6102 4.54545 69.1985 0 63.772 0H34.2573C28.8308 0 24.4191 4.54545 24.4191 10.1364V22.0909H28.1691V10.1364C28.1691 8.47064 28.8098 6.8728 29.9509 5.69282C31.0921 4.51285 32.6406 3.84692 34.2573 3.84091V3.86364Z" fill="#2980B9"/>
<path fill-rule="evenodd" clip-rule="evenodd" d="M37.125 15.5455C37.125 14.4773 37.9632 13.6136 39 13.6136H59.1838C59.6811 13.6136 60.158 13.8172 60.5097 14.1795C60.8613 14.5418 61.0588 15.0331 61.0588 15.5455C61.0588 16.0578 60.8613 16.5492 60.5097 16.9115C60.158 17.2738 59.6811 17.4773 59.1838 17.4773H39C38.7538 17.4773 38.51 17.4273 38.2825 17.3302C38.055 17.2331 37.8483 17.0909 37.6742 16.9115C37.5001 16.7321 37.362 16.5191 37.2677 16.2847C37.1735 16.0504 37.125 15.7992 37.125 15.5455Z" fill="#2980B9"/>
<path fill-rule="evenodd" clip-rule="evenodd" d="M63.772 0C69.2205 0 73.6102 4.54545 73.6102 10.1364V40.5455C73.6102 46.1364 69.1985 50.6818 63.772 50.6818H51.6838V46.8182H63.772C65.3887 46.8182 66.9396 46.158 68.0849 44.9823C69.2301 43.8066 69.8765 42.2112 69.8823 40.5455V10.1364C69.8823 8.46671 69.2385 6.86543 68.0926 5.6848C66.9467 4.50418 65.3926 3.84091 63.772 3.84091H34.2573C32.6406 3.84692 31.0921 4.51285 29.9509 5.69282C28.8098 6.8728 28.1691 8.47064 28.1691 10.1364V22.0909H24.4191V10.1364C24.4191 4.54545 28.8308 0 34.2573 0H63.772Z" fill="#2980B9"/>
<path fill-rule="evenodd" clip-rule="evenodd" d="M52.0808 25.0455C52.0808 23.9773 52.7205 23.1136 53.4926 23.1136H59.669C60.4411 23.1136 61.0588 23.9773 61.0588 25.0455C61.0588 26.0909 60.4411 26.9546 59.647 26.9546H53.4705C52.7205 26.9546 52.0808 26.0909 52.0808 25.0455ZM52.0808 34.5455C52.0808 33.4773 52.919 32.6136 53.9558 32.6136H59.1837C59.681 32.6136 60.1579 32.8172 60.5096 33.1795C60.8612 33.5417 61.0588 34.0331 61.0588 34.5455C61.0588 35.0578 60.8612 35.5492 60.5096 35.9115C60.1579 36.2737 59.681 36.4773 59.1837 36.4773H53.9558C53.4585 36.4773 52.9816 36.2737 52.63 35.9115C52.2784 35.5492 52.0808 35.0578 52.0808 34.5455Z" fill="#2980B9"/>
</svg>
